<svg width="36" height="25" viewBox="0 0 36 25" fill="none" xmlns="http://www.w3.org/2000/svg">
<path d="M14.909 2.84249C16.0283 1.67812 17.5837 0.955303 19.3077 0.955303C21.5971 0.955303 23.594 2.23218 24.6571 4.1278C25.6082 3.70225 26.6386 3.48275 27.6805 3.48374C31.8093 3.48374 35.1562 6.86155 35.1562 11.0241C35.1562 15.1894 31.8093 18.5672 27.6805 18.5672C27.1771 18.5672 26.6849 18.5166 26.2068 18.4209C25.2702 20.0916 23.4843 21.2194 21.4368 21.2194C20.579 21.2194 19.769 21.0225 19.0462 20.6681C18.0955 22.9012 15.8849 24.4678 13.3058 24.4678C10.6199 24.4678 8.33334 22.7691 7.45584 20.3869C7.07334 20.4684 6.67396 20.5106 6.26615 20.5106C3.06834 20.5106 0.478027 17.8922 0.478027 14.6634C0.478027 12.4978 1.6424 10.6078 3.37209 9.59812C3.00496 8.75429 2.81632 7.84366 2.81803 6.92343C2.81803 3.20812 5.83303 0.195929 9.55397 0.195929C11.7365 0.193116 13.6799 1.23374 14.909 2.84249Z" fill="#00A1E0"/>
</svg>
