<svg width="24" height="24" viewBox="0 0 24 24" fill="none" xmlns="http://www.w3.org/2000/svg">
<path d="M4 5L4.73423 17.4819C4.82777 19.0722 4.87455 19.8673 5.21396 20.4707C5.51274 21.0019 5.96624 21.4295 6.51407 21.6966C7.13638 22 7.9329 22 9.52594 22H14.4741C16.0671 22 16.8636 22 17.4859 21.6966C18.0338 21.4295 18.4873 21.0019 18.786 20.4707C19.1255 19.8673 19.1722 19.0722 19.2658 17.4819L20 5M4 5H2M4 5H20M20 5H22M16 5L15.547 3.64105C15.3503 3.05094 15.252 2.75588 15.0695 2.53774C14.9084 2.3451 14.7016 2.19599 14.4679 2.10408C14.2032 2 13.8922 2 13.2702 2H10.7298C10.1078 2 9.79677 2 9.53213 2.10408C9.29844 2.19599 9.09156 2.3451 8.93047 2.53774C8.74804 2.75588 8.64969 3.05094 8.45298 3.64105L8 5M10 10V17M14 10V14" stroke="#1A2433" stroke-width="1.2" stroke-linecap="round" stroke-linejoin="round"/>
</svg>
